<?xml version="1.0" encoding="UTF-8" standalone="no"?>
<!-- Created with Inkscape (http://www.inkscape.org/) -->

<svg
   xmlns:dc="http://purl.org/dc/elements/1.1/"
   xmlns:cc="http://creativecommons.org/ns#"
   xmlns:rdf="http://www.w3.org/1999/02/22-rdf-syntax-ns#"
   xmlns:svg="http://www.w3.org/2000/svg"
   xmlns="http://www.w3.org/2000/svg"
   xmlns:sodipodi="http://sodipodi.sourceforge.net/DTD/sodipodi-0.dtd"
   xmlns:inkscape="http://www.inkscape.org/namespaces/inkscape"
   width="27.636162mm"
   height="9.7683706mm"
   viewBox="0 0 27.636162 9.7683706"
   version="1.1"
   id="svg8"
   inkscape:version="0.92.4 5da689c313, 2019-01-14"
   sodipodi:docname="daffodil11-logo-2.svg">
  <defs
     id="defs2" />
  <sodipodi:namedview
     id="base"
     pagecolor="#ffffff"
     bordercolor="#666666"
     borderopacity="1.0"
     inkscape:pageopacity="0.0"
     inkscape:pageshadow="2"
     inkscape:zoom="1.979899"
     inkscape:cx="37.391697"
     inkscape:cy="30.113349"
     inkscape:document-units="mm"
     inkscape:current-layer="layer1"
     showgrid="false"
     fit-margin-top="0"
     fit-margin-left="0"
     fit-margin-right="0"
     fit-margin-bottom="0"
     inkscape:window-width="1366"
     inkscape:window-height="768"
     inkscape:window-x="0"
     inkscape:window-y="0"
     inkscape:window-maximized="0" />
  <metadata
     id="metadata5">
    <rdf:RDF>
      <cc:Work
         rdf:about="">
        <dc:format>image/svg+xml</dc:format>
        <dc:type
           rdf:resource="http://purl.org/dc/dcmitype/StillImage" />
        <dc:title></dc:title>
      </cc:Work>
    </rdf:RDF>
  </metadata>
  <g
     inkscape:label="Layer 1"
     inkscape:groupmode="layer"
     id="layer1"
     transform="translate(-13.77474,-147.65306)">
    <g
       transform="matrix(0.01185018,-0.01202715,0.01066997,0.0133575,28.745551,160.03256)"
       id="layer1-3-2"
       inkscape:label="Layer 1"
       style="fill:#fad700;fill-opacity:1;stroke:#000006;stroke-width:5.723948;stroke-miterlimit:4;stroke-dasharray:none;stroke-opacity:1">
      <path
         sodipodi:nodetypes="ccscsczszzczczczssczszzzzsssscszczzzzzzzcc"
         inkscape:connector-curvature="0"
         id="path3778-2-2"
         d="m 251.92523,-558.15154 c -1.68483,1.94334 -6.46142,9.40078 -7.06843,13.36097 0.71202,3.61428 3.77082,3.44382 4.92463,6.38554 1.982,5.05328 -3.48366,8.49749 -3.08615,13.07912 1.27103,1.72396 4.93769,2.50356 6.43455,2.6197 2.23074,0.17302 7.83686,-3.54618 10.94796,-1.38126 0.11863,7.28143 4.46969,21.60075 4.7946,25.76919 0.32494,4.16845 -0.31504,8.71328 0.37926,14.69401 0.89473,7.70716 -4.74465,23.9399 -7.70498,25.65113 -2.96025,1.71142 -13.18645,-7.11013 -14.59754,-11.19579 -1.41111,-4.08565 -1.39045,-17.50068 -0.80194,-20.89568 -4.41107,-0.44363 -6.74147,-1.28245 -11.03593,-5.64347 -4.29452,-4.36101 -8.42294,-14.27494 -8.42294,-14.27494 0,0 -13.56956,16.32148 -18.36225,22.53432 -4.79269,6.21281 -11.53236,16.39197 -14.4738,20.35017 0.78081,1.5436 3.04283,-0.44941 4.35702,0.73161 1.31425,1.18098 0.58314,3.36471 1.51204,4.73787 1.78547,2.64039 5.83558,3.89407 5.74876,6.88175 -0.0501,1.72597 -1.27972,3.31108 -3.54612,3.77585 -8.96568,-1.73629 -15.24589,-7.22733 -18.62254,-9.83321 -3.37663,-2.60591 -11.32727,-11.48251 -12.66936,-12.47159 -2.76961,-2.04113 -6.32132,-5.61041 -8.09921,-6.98205 -1.77791,-1.37163 -4.72813,-2.16458 -6.0896,-3.32603 -1.36143,-1.16145 -1.06514,-2.05759 -3.08475,-2.97516 -2.01965,-0.9175 -12.26574,-4.66748 -15.21503,-7.70344 -2.94929,-3.03594 -4.58316,-4.09477 -3.61527,-6.32065 1.44184,-3.31592 12.49057,-4.68838 13.83288,-3.1839 1.24806,1.39887 -0.84394,3.55721 0.34015,4.46735 2.25383,1.73232 6.83237,-1.22464 9.68609,-3.04408 7.91287,-5.0451 31.19469,-29.12192 31.19469,-29.12192 -3.87658,-2.81193 -5.08432,-3.2549 -8.28921,-5.32304 -2.85043,-1.83941 -4.84905,-4.08798 -5.4,-7.53782 -0.55095,-3.44984 0.26591,-6.47621 3.15764,-11.96456 -8.20669,1.87209 -23.07471,7.98994 -28.79521,6.40418 -5.7205,-1.58576 -11.66459,-8.03536 -11.59465,-12.18212 0.0699,-4.14676 5.67584,-11.9792 16.48482,-15.16302 10.80901,-3.18376 35.41252,-5.73511 42.37712,2.87953 6.96461,8.61462 5.89485,14.26478 7.77774,16.10862 1.88292,1.84383 4.51045,2.98251 8.17308,2.91549 3.66265,-0.067 13.47067,-4.74973 18.03534,-6.84906 4.56473,-2.09928 6.07849,-3.50594 8.36474,-5.968 4.13482,5.07414 6.52049,4.61858 12.0518,9.99439 z"
         style="fill:#fad700;fill-opacity:1;stroke:#000006;stroke-width:5.723948;stroke-linecap:butt;stroke-linejoin:miter;stroke-miterlimit:4;stroke-dasharray:none;stroke-opacity:1" />
    </g>
    <path
       inkscape:connector-curvature="0"
       id="path71"
       style="font-style:normal;font-variant:normal;font-weight:normal;font-stretch:normal;font-size:10.58333302px;line-height:1.25;font-family:Pompiere;-inkscape-font-specification:Pompiere;letter-spacing:0px;word-spacing:0px;fill:#000000;fill-opacity:1;stroke:#000000;stroke-width:0.3175;stroke-miterlimit:4;stroke-dasharray:none;stroke-opacity:1"
       d="m 16.18656,154.8396 -0.0052,-1.09037 q -0.299723,-0.1912 -0.568441,-0.1912 -0.263549,0 -0.465087,0.10852 -0.196371,0.10335 -0.356568,0.31522 -0.361735,0.47026 -0.361735,1.2454 0,1.09038 0.501262,1.43661 0.165364,0.11369 0.377238,0.11369 0.211873,0 0.361735,-0.0878 0.149861,-0.0879 0.253214,-0.21704 0.186035,-0.23772 0.253215,-0.56328 0.01033,-0.42374 0.01033,-1.0697 z m 0.418579,-5.16764 q -0.0052,0.38757 -0.01033,0.82165 0,0.42892 0,1.85002 0,1.41593 0.05168,2.74919 0.05684,1.32808 0.07752,1.44694 0.02584,0.11885 0.05168,0.20153 0.03101,0.0827 0.05168,0.13436 0.02584,0.0517 0.02584,0.12403 0,0.0723 -0.06718,0.12919 -0.06201,0.062 -0.139526,0.062 -0.335897,0 -0.3514,-0.66663 0,-0.0155 0,-0.0258 -0.341064,0.72864 -1.023193,0.72864 -0.589111,0 -0.950846,-0.48576 -0.387574,-0.52193 -0.387574,-1.46244 0,-0.98702 0.511597,-1.60714 0.465088,-0.56844 1.100708,-0.56844 0.356567,0 0.609782,0.12919 -0.0052,-0.37207 -0.0052,-0.76998 -0.0052,-0.49609 -0.01034,-0.98701 -0.0052,-0.4961 -0.0155,-0.96119 -0.0052,-0.46508 -0.01034,-0.87333 -0.01033,-0.85266 -0.02584,-1.14721 -0.0155,-0.29456 0.07751,-0.37208 0.09302,-0.0827 0.206706,-0.0827 0.118856,0 0.211873,0.0827 0.09819,0.0775 0.07752,0.28939 -0.0155,0.21188 -0.03101,0.54261 -0.0155,0.33072 -0.02584,0.7183 z" />
    <path
       inkscape:connector-curvature="0"
       id="path73"
       style="font-style:normal;font-variant:normal;font-weight:normal;font-stretch:normal;font-size:10.58333302px;line-height:1.25;font-family:Pompiere;-inkscape-font-specification:Pompiere;letter-spacing:0px;word-spacing:0px;fill:#000000;fill-opacity:1;stroke:#000000;stroke-width:0.3175;stroke-miterlimit:4;stroke-dasharray:none;stroke-opacity:1"
       d="m 19.444132,156.054 q -0.0052,-0.28422 0,-0.69763 -0.222209,-0.0775 -0.563273,-0.0775 -0.459921,0 -0.754476,0.22221 -0.144694,0.11369 -0.232544,0.27905 -0.08785,0.1602 -0.08785,0.41858 0,0.25322 0.1757,0.42375 0.1757,0.17053 0.516764,0.17053 0.341064,0 0.759644,-0.46509 0.118855,-0.12919 0.186035,-0.27388 z m 0.330729,1.16788 q -0.310059,0 -0.310059,-0.47025 0,-0.031 -0.0052,-0.1757 -0.04651,0.0568 -0.103353,0.12402 -0.465088,0.5271 -1.012858,0.5271 -0.43925,0 -0.728638,-0.27905 -0.299723,-0.28939 -0.299723,-0.73897 0,-0.62529 0.485758,-1.00769 0.217041,-0.17054 0.485759,-0.25839 0.273885,-0.0879 0.609782,-0.0879 0.279052,0 0.54777,0.093 v -0.54777 q 0,-0.45475 -0.191203,-0.68213 -0.186035,-0.22737 -0.387573,-0.22737 -0.201538,0 -0.330729,0.0517 -0.124024,0.0517 -0.222209,0.14986 -0.217041,0.21188 -0.248047,0.5271 0.0155,0.16537 -0.06718,0.23255 -0.08268,0.062 -0.180868,0.062 -0.279053,0 -0.268717,-0.37207 0.01033,-0.38757 0.392741,-0.71314 0.39274,-0.33589 0.878499,-0.33589 0.72347,0 0.976684,0.7183 0.08785,0.25838 0.08785,0.56844 v 0.53227 l -0.0052,0.86816 v 0.45992 q 0,0.31006 0.07235,0.50126 0.07751,0.19121 0.07751,0.27389 0,0.0775 -0.07751,0.13952 -0.07751,0.0672 -0.1757,0.0672 z" />
    <path
       inkscape:connector-curvature="0"
       id="path75"
       style="font-style:normal;font-variant:normal;font-weight:normal;font-stretch:normal;font-size:10.58333302px;line-height:1.25;font-family:Pompiere;-inkscape-font-specification:Pompiere;letter-spacing:0px;word-spacing:0px;fill:#000000;fill-opacity:1;stroke:#000000;stroke-width:0.3175;stroke-miterlimit:4;stroke-dasharray:none;stroke-opacity:1"
       d="m 22.54307,149.38575 0.06718,-0.40307 c 0,-0.30661 -0.10163,-0.49609 -0.304891,-0.56844 -0.05857,-0.0207 -0.136081,-0.031 -0.232543,-0.031 -0.09302,0 -0.184313,0.031 -0.273886,0.093 -0.08957,0.062 -0.165364,0.17913 -0.227376,0.3514 -0.137804,0.40307 -0.196371,1.45555 -0.1757,3.15743 0.0069,0.44786 0.01034,0.88194 0.01034,1.30224 l 1.890323,-0.0258 c 0.230822,0 0.346232,0.0861 0.346232,0.25839 0,0.10679 -0.05857,0.18431 -0.1757,0.23254 -0.04134,0.0138 -0.09498,0.0408 -0.184558,0.0339 -0.275608,-0.0138 -1.531788,-0.0443 -1.628251,-0.0443 -0.09302,0 -0.175699,0.002 -0.248046,0.005 v 0.92501 c 0,0.99908 0.01206,1.59853 0.03617,1.79834 0.02411,0.19981 0.02928,0.33073 0.0155,0.39274 -0.01378,0.062 -0.03617,0.11368 -0.06718,0.15503 -0.06201,0.0896 -0.132638,0.13436 -0.211874,0.13436 -0.07579,0 -0.139526,-0.031 -0.191203,-0.093 -0.04823,-0.062 -0.07063,-0.14985 -0.06718,-0.26355 0.0069,-0.11369 0.01033,-0.27216 0.01033,-0.47542 0.0035,-0.20671 0.0035,-0.45303 0,-0.73897 v -0.97152 c -0.0035,-0.26527 -0.0069,-0.5426 -0.01033,-0.83199 -0.07924,0.007 -0.172255,0.012 -0.279053,0.0155 -0.113688,0.007 -0.19637,-0.0173 -0.248046,-0.0724 -0.05168,-0.0551 -0.07752,-0.1137 -0.07752,-0.1757 0,-0.062 0.01034,-0.11023 0.03101,-0.14469 0.02411,-0.0379 0.0534,-0.0689 0.08785,-0.093 0.06545,-0.0448 0.136078,-0.0672 0.211873,-0.0672 l 0.273885,0.0207 c -0.0069,-0.74758 -0.01034,-1.45899 -0.01034,-2.13423 0,-0.73725 0.01895,-1.29191 0.05684,-1.66398 0.04134,-0.37207 0.108519,-0.67524 0.201538,-0.90951 0.18259,-0.44441 0.513319,-0.66662 0.992187,-0.66662 0.447863,0 0.747586,0.25149 0.89917,0.75447 0.05167,0.16537 0.07751,0.34623 0.07751,0.5426 0,0.19293 -0.03101,0.32729 -0.09302,0.40308 -0.06201,0.0758 -0.13436,0.11369 -0.217041,0.11369 -0.18948,0 -0.28422,-0.10508 -0.28422,-0.31523 z"
       sodipodi:nodetypes="cccscccccsccscssccsccccccccsccccsccscssscc" />
    <path
       inkscape:connector-curvature="0"
       id="path77"
       style="font-style:normal;font-variant:normal;font-weight:normal;font-stretch:normal;font-size:10.58333302px;line-height:1.25;font-family:Pompiere;-inkscape-font-specification:Pompiere;letter-spacing:0px;word-spacing:0px;fill:#000000;fill-opacity:1;stroke:#000000;stroke-width:0.3175;stroke-miterlimit:4;stroke-dasharray:none;stroke-opacity:1"
       d="m 25.490421,149.3774 0.06718,-0.40307 c 0.05445,-0.26669 -0.366804,-0.70155 -0.729535,-0.67214 -0.09302,0 -0.299636,0.0412 -0.465985,0.17407 -0.08957,0.062 -0.165364,0.17913 -0.227376,0.3514 -0.137804,0.40307 -0.196371,1.45555 -0.1757,3.15743 0.0069,0.44786 0.01034,0.88194 0.01034,1.30224 l 0.831991,-0.0258 c 0.230821,0 0.346232,0.0861 0.346232,0.25839 0,0.10679 -0.05857,0.18431 -0.1757,0.23254 -0.04134,0.0138 -0.106797,0.0172 -0.19637,0.0103 -0.275608,-0.0138 -0.461643,-0.0207 -0.558106,-0.0207 -0.09302,0 -0.1757,0.002 -0.248047,0.005 v 0.92501 c 0,0.99908 0.01206,1.59853 0.03617,1.79834 0.02411,0.19981 0.02928,0.33073 0.0155,0.39274 -0.01378,0.062 -0.03617,0.11368 -0.06718,0.15503 -0.06201,0.0896 -0.132638,0.13436 -0.211874,0.13436 -0.07579,0 -0.139526,-0.031 -0.191203,-0.093 -0.04823,-0.062 -0.07063,-0.14985 -0.06718,-0.26355 0.0069,-0.11369 0.01034,-0.27216 0.01034,-0.47542 0.0035,-0.20671 0.0035,-0.45303 0,-0.73897 v -0.97152 c -0.0035,-0.26527 -0.0069,-0.5426 -0.01034,-0.83199 -0.07924,0.007 -0.222455,-0.0146 -0.329253,-0.0111 -0.113688,0.007 -0.684196,-0.008 -0.735873,-0.0635 -0.05167,-0.0551 -0.06865,-0.096 -0.06865,-0.15798 0,-0.062 0.01034,-0.11023 0.03101,-0.14469 0.02411,-0.0379 0.0534,-0.0689 0.08785,-0.093 0.06546,-0.0448 0.64458,-0.0288 0.720369,-0.0288 l 0.294556,-0.0177 c -0.0069,-0.74758 -0.01033,-1.45899 -0.01033,-2.13423 0,-0.73725 0.01895,-1.29191 0.05684,-1.66398 0.04134,-0.37207 0.108519,-0.67524 0.201538,-0.90951 0.18259,-0.44441 0.709595,-0.70421 1.188463,-0.70421 0.447863,0 0.93551,0.28073 1.087094,0.78371 0.05167,0.16537 0.07751,0.34623 0.07751,0.5426 0,0.19293 -0.03101,0.32729 -0.09302,0.40308 -0.06201,0.0758 -0.13436,0.11369 -0.217041,0.11369 -0.215384,0.0156 -0.288054,-0.0832 -0.28422,-0.31505 z"
       sodipodi:nodetypes="ccccccccsccscssccsccccccccsccccsccscssccc" />
    <path
       inkscape:connector-curvature="0"
       id="path79"
       style="font-style:normal;font-variant:normal;font-weight:normal;font-stretch:normal;font-size:10.58333302px;line-height:1.25;font-family:Pompiere;-inkscape-font-specification:Pompiere;letter-spacing:0px;word-spacing:0px;fill:#000000;fill-opacity:1;stroke:#000000;stroke-width:0.3175;stroke-miterlimit:4;stroke-dasharray:none;stroke-opacity:1"
       d="m 27.071069,153.67098 q -0.170532,-0.12402 -0.403076,-0.12402 -0.227376,0 -0.418579,0.12919 -0.186035,0.12402 -0.315226,0.3514 -0.26355,0.45475 -0.26355,1.25057 0,0.79065 0.253214,1.16788 0.253215,0.37724 0.676962,0.37724 0.465087,0 0.74414,-0.53227 0.248047,-0.47542 0.248047,-1.16788 0,-1.06454 -0.521932,-1.45211 z m -0.475423,3.59151 q -0.294556,0.005 -0.552938,-0.11885 -0.253214,-0.1292 -0.43925,-0.39791 -0.408243,-0.56844 -0.408243,-1.61747 0,-0.94052 0.439249,-1.48312 0.413412,-0.51676 1.095541,-0.51676 0.573608,0 0.950846,0.49609 0.387573,0.5271 0.387573,1.44694 0,1.02319 -0.449585,1.63298 -0.403076,0.54777 -1.023193,0.5581 z" />
    <path
       inkscape:connector-curvature="0"
       id="path81"
       style="font-style:normal;font-variant:normal;font-weight:normal;font-stretch:normal;font-size:10.58333302px;line-height:1.25;font-family:Pompiere;-inkscape-font-specification:Pompiere;letter-spacing:0px;word-spacing:0px;fill:#000000;fill-opacity:1;stroke:#000000;stroke-width:0.3175;stroke-miterlimit:4;stroke-dasharray:none;stroke-opacity:1"
       d="m 30.962303,154.87504 -0.0052,-1.09037 q -0.299724,-0.1912 -0.568441,-0.1912 -0.26355,0 -0.465088,0.10852 -0.19637,0.10335 -0.356567,0.31522 -0.361735,0.47026 -0.361735,1.2454 0,1.09038 0.501261,1.43661 0.165365,0.11369 0.377238,0.11369 0.211873,0 0.361735,-0.0878 0.149862,-0.0879 0.253215,-0.21704 0.186035,-0.23772 0.253214,-0.56328 0.01033,-0.42374 0.01033,-1.0697 z m 0.418579,-5.16764 q -0.0052,0.38757 -0.01034,0.82165 0,0.42892 0,1.85002 0,1.41593 0.05168,2.74919 0.05684,1.32808 0.07751,1.44694 0.02584,0.11885 0.05168,0.20153 0.03101,0.0827 0.05168,0.13436 0.02584,0.0517 0.02584,0.12403 0,0.0723 -0.06718,0.12919 -0.06201,0.062 -0.139526,0.062 -0.335897,0 -0.3514,-0.66663 0,-0.0155 0,-0.0258 -0.341065,0.72864 -1.023193,0.72864 -0.589112,0 -0.950847,-0.48576 -0.387573,-0.52193 -0.387573,-1.46244 0,-0.98702 0.511597,-1.60714 0.465088,-0.56844 1.100708,-0.56844 0.356567,0 0.609782,0.12919 -0.0052,-0.37207 -0.0052,-0.76998 -0.0052,-0.49609 -0.01034,-0.98701 -0.0052,-0.4961 -0.0155,-0.96119 -0.0052,-0.46508 -0.01034,-0.87333 -0.01034,-0.85266 -0.02584,-1.14721 -0.0155,-0.29456 0.07751,-0.37208 0.09302,-0.0827 0.206706,-0.0827 0.118855,0 0.211873,0.0827 0.09819,0.0775 0.07751,0.28939 -0.0155,0.21188 -0.03101,0.54261 -0.0155,0.33072 -0.02584,0.7183 z" />
    <path
       inkscape:connector-curvature="0"
       id="path83"
       style="font-style:normal;font-variant:normal;font-weight:normal;font-stretch:normal;font-size:10.58333302px;line-height:1.25;font-family:Pompiere;-inkscape-font-specification:Pompiere;letter-spacing:0px;word-spacing:0px;fill:#000000;fill-opacity:1;stroke:#000000;stroke-width:0.3175;stroke-miterlimit:4;stroke-dasharray:none;stroke-opacity:1"
       d="m 33.571964,151.6711 q 0.03617,0.0827 0.02584,0.20154 -0.0052,0.11369 -0.05168,0.19637 -0.04651,0.0827 -0.108521,0.13436 -0.118856,0.093 -0.242879,0.093 -0.124023,0 -0.19637,-0.0258 -0.07235,-0.031 -0.129192,-0.0827 -0.134358,-0.12403 -0.134358,-0.32557 0,-0.20153 0.103353,-0.28938 0.170532,-0.14986 0.341064,-0.14986 0.279053,0 0.392741,0.24804 z m -0.165365,1.94304 q -0.02584,0.53743 -0.05168,1.05936 -0.02584,0.52193 -0.02584,0.94051 0,0.41858 0.02584,0.86817 0.02584,0.44442 0,0.51159 -0.02067,0.062 -0.06201,0.10336 -0.08785,0.0879 -0.191203,0.0879 -0.103352,0 -0.19637,-0.0775 -0.08785,-0.0775 -0.06718,-0.31522 0.05684,-0.65629 0.05684,-1.32809 0,-0.67179 -0.02067,-1.0852 -0.0155,-0.41858 -0.02584,-0.63046 -0.0052,-0.21187 0.02067,-0.27388 0.02584,-0.062 0.07235,-0.0982 0.08785,-0.0827 0.196371,-0.0827 0.10852,0 0.191203,0.0775 0.08268,0.0775 0.07751,0.24288 z" />
    <path
       inkscape:connector-curvature="0"
       id="path85"
       style="font-style:normal;font-variant:normal;font-weight:normal;font-stretch:normal;font-size:10.58333302px;line-height:1.25;font-family:Pompiere;-inkscape-font-specification:Pompiere;letter-spacing:0px;word-spacing:0px;fill:#000000;fill-opacity:1;stroke:#000000;stroke-width:0.3175;stroke-miterlimit:4;stroke-dasharray:none;stroke-opacity:1"
       d="m 35.416813,150.38953 q -0.01034,0.63045 -0.02067,1.36425 -0.0052,0.73381 -0.0052,2.26343 0,1.52962 0.04134,2.83187 0.0052,0.17053 -0.08268,0.25838 -0.08268,0.0879 -0.201538,0.0879 -0.118856,0 -0.211873,-0.0775 -0.09302,-0.0827 -0.07751,-0.3669 0.0155,-0.28423 0.03101,-0.85267 0.02067,-0.5736 0.03617,-1.24023 0.02584,-1.46761 0.02584,-2.45463 0,-0.99219 -0.0052,-1.48828 0,-0.4961 -0.0052,-0.91467 -0.01033,-0.78549 -0.05168,-1.43661 -0.01033,-0.16536 0.06718,-0.25321 0.07751,-0.093 0.196371,-0.093 0.118856,0 0.217041,0.093 0.103353,0.0879 0.09302,0.35656 -0.01033,0.26872 -0.02584,0.78032 -0.01033,0.51159 -0.02067,1.14205 z" />
    <path
       sodipodi:nodetypes="cccczccszsccccscccccc"
       id="path1564"
       style="font-style:normal;font-variant:normal;font-weight:normal;font-stretch:normal;font-size:10.58333302px;line-height:1.25;font-family:Pompiere;-inkscape-font-specification:Pompiere;letter-spacing:0px;word-spacing:0px;fill:#000000;fill-opacity:1;stroke:#000000;stroke-width:0.07170807;stroke-miterlimit:4;stroke-dasharray:none;stroke-opacity:1"
       d="m 40.767781,157.33179 c -0.285611,0 -0.422201,-0.21532 -0.409775,-0.64586 0.01851,-0.43061 0.116712,-1.05302 0.129192,-1.70204 0.05705,-1.10423 0.07403,-1.53306 0.07434,-2.17533 0.0077,-0.95076 -0.0064,-2.10867 -0.0078,-2.20724 -9.2e-4,-0.0985 0,-0.62717 0,-0.62717 -0.257603,0.19419 -0.560625,0.56306 -0.749648,0.81207 -0.09317,0.106 -0.214222,0.17808 -0.363228,0.17808 -0.118833,0 -0.199971,-0.007 -0.27166,-0.0839 -0.0717,-0.0716 -0.122009,-0.13118 -0.122009,-0.28101 0,-0.15597 0.0839,-0.30891 0.251466,-0.4587 0.173933,-0.14993 0.316666,-0.27454 0.428415,-0.37442 0.118013,-0.0998 0.119509,-0.11611 0.200193,-0.18465 0.186282,-0.18988 0.288746,-0.30373 0.422676,-0.47049 0.155211,-0.16226 0.319773,-0.24332 0.493619,-0.24332 0.366349,0 0.5433,0.19968 0.530876,0.59903 -0.09771,1.79857 -0.09317,0.58138 -0.09317,2.51801 0,3.02029 0.01667,3.31544 0.04651,4.71951 0.0055,0.20592 -0.04952,0.36192 -0.167614,0.46803 -0.118009,0.10619 -0.248364,0.15926 -0.391148,0.15926 z"
       inkscape:connector-curvature="0" />
    <path
       sodipodi:nodetypes="cccczccszsccccscccccc"
       id="path1564-0"
       style="font-style:normal;font-variant:normal;font-weight:normal;font-stretch:normal;font-size:10.58333302px;line-height:1.25;font-family:Pompiere;-inkscape-font-specification:Pompiere;letter-spacing:0px;word-spacing:0px;fill:#000000;fill-opacity:1;stroke:#000000;stroke-width:0.07170807;stroke-miterlimit:4;stroke-dasharray:none;stroke-opacity:1"
       d="m 38.051318,157.33444 c -0.285611,0 -0.422201,-0.21532 -0.409775,-0.64586 0.01851,-0.43061 0.116712,-1.05302 0.129192,-1.70204 0.05705,-1.10423 0.07403,-1.53306 0.07434,-2.17533 0.0077,-0.95076 -0.0064,-2.10867 -0.0078,-2.20724 -9.21e-4,-0.0985 0,-0.62717 0,-0.62717 -0.257603,0.19419 -0.560625,0.56306 -0.749648,0.81207 -0.09317,0.106 -0.214222,0.17808 -0.363228,0.17808 -0.118833,0 -0.199971,-0.007 -0.27166,-0.0839 -0.0717,-0.0716 -0.122009,-0.13118 -0.122009,-0.28101 0,-0.15597 0.0839,-0.30891 0.251466,-0.4587 0.173933,-0.14993 0.316666,-0.27454 0.428415,-0.37442 0.118013,-0.0998 0.119509,-0.11611 0.200193,-0.18465 0.186282,-0.18988 0.288746,-0.30373 0.422676,-0.47049 0.155211,-0.16226 0.319773,-0.24332 0.493619,-0.24332 0.366349,0 0.5433,0.19968 0.530876,0.59903 -0.09771,1.79857 -0.09317,0.58138 -0.09317,2.51801 0,3.02029 0.01667,3.31544 0.04651,4.71951 0.0055,0.20592 -0.04952,0.36192 -0.167614,0.46803 -0.118009,0.10619 -0.248364,0.15926 -0.391148,0.15926 z"
       inkscape:connector-curvature="0" />
  </g>
</svg>
